<svg width="148" height="220" viewBox="0 0 148 220" fill="none" xmlns="http://www.w3.org/2000/svg">
<path d="M14.7998 152.44C14.7998 148.353 18.1129 145.04 22.1998 145.04H36.9998C41.0867 145.04 44.3998 148.353 44.3998 152.44V189.44C44.3998 193.527 41.0867 196.84 36.9998 196.84H22.1998C18.1129 196.84 14.7998 193.527 14.7998 189.44V152.44Z" fill="#D9D9D9"/>
<path d="M59.1998 122.84C59.1998 118.753 62.5129 115.44 66.5998 115.44H81.3998C85.4867 115.44 88.7998 118.753 88.7998 122.84V189.44C88.7998 193.527 85.4867 196.84 81.3998 196.84H66.5998C62.5129 196.84 59.1998 193.527 59.1998 189.44V122.84Z" fill="#D9D9D9"/>
<path d="M103.6 100.64C103.6 96.5531 106.913 93.24 111 93.24H125.8C129.887 93.24 133.2 96.5531 133.2 100.64V189.44C133.2 193.527 129.887 196.84 125.8 196.84H111C106.913 196.84 103.6 193.527 103.6 189.44V100.64Z" fill="#D9D9D9"/>
<path fill-rule="evenodd" clip-rule="evenodd" d="M87.0239 50.764C83.0187 50.764 79.7719 47.5172 79.7719 43.512C79.7719 39.5068 83.0187 36.26 87.0239 36.26H123.284C127.289 36.26 130.536 39.5068 130.536 43.512V79.772C130.536 83.7772 127.289 87.024 123.284 87.024C119.279 87.024 116.032 83.7772 116.032 79.772V61.0199L84.8998 92.152C82.0678 94.984 77.476 94.984 74.644 92.152L58.0159 75.5239L26.8838 106.656C24.0518 109.488 19.46 109.488 16.628 106.656C13.7959 103.824 13.7959 99.2322 16.628 96.4001L52.888 60.1401C55.72 57.308 60.3118 57.308 63.1438 60.1401L79.7719 76.7681L105.776 50.764H87.0239Z" fill="#D9D9D9"/>
</svg>
