<svg width="60" height="45" viewBox="0 0 60 45" fill="none" xmlns="http://www.w3.org/2000/svg">
<path d="M57.9651 34.7402C57.1673 35.8044 56.0633 37.071 54.6866 38.1649C52.8997 39.5849 50.7258 40.6588 48.2035 40.7145L48.1941 40.7147L48.1847 40.715C47.4581 40.7402 46.9135 41.1516 46.5975 41.594L46.5945 41.5983L45.2463 43.5H14.7537L13.4055 41.5983L13.4055 41.5983L13.4025 41.594C13.0865 41.1516 12.5419 40.7402 11.8153 40.715L11.8059 40.7147L11.7965 40.7145C9.27421 40.6588 7.10034 39.5849 5.31339 38.1649C3.93673 37.071 2.83275 35.8044 2.03486 34.7402H57.9651Z" stroke="#D9D9D9" stroke-width="3"/>
<path d="M57.8434 11.3225L57.8436 11.3242C58.1659 14.6218 57.0264 18.0299 55.4866 20.6181C53.7927 23.3857 51.6938 25.4953 49.3932 26.8262C48.0926 27.5626 46.7507 28.0899 45.3908 28.4067L45.575 28.3529C47.424 27.813 49.1885 26.9069 50.817 25.6787C53.2688 23.8868 55.2727 21.2412 56.667 18.075L56.6748 18.0572L56.6821 18.0393C57.2625 16.6231 57.7796 14.7698 57.8046 12.9773C57.8293 11.2058 57.3637 9.16645 55.5865 7.913L55.5577 7.89265L55.5279 7.87368C54.5163 7.22926 53.3176 7.03849 52.1602 7.40444C51.0361 7.75984 50.136 8.57874 49.5215 9.58963C48.9438 10.4993 48.2514 11.1034 47.5592 11.4192L46.7775 11.7757L46.6896 12.6304C46.1953 17.4331 45.3014 22.5492 43.764 26.3506L42.787 28.7661L42.6033 28.7802L42.1986 29.393C41.2238 30.8691 40.0022 31.6152 38.8545 31.7399H21.1585C19.6155 31.5875 18.1867 30.3777 16.9122 27.8917C15.644 25.4178 14.7312 22.0474 14.09 18.4231C12.9047 11.7222 12.7099 4.53069 12.6879 1.5H47.2942C47.2921 1.59763 47.2897 1.70094 47.2872 1.81035C47.2855 1.88391 47.2837 1.96022 47.2819 2.03941C47.2711 2.52104 47.26 3.08555 47.26 3.71453V5.56368L49.0694 5.18228C50.6692 4.84506 52.2977 4.91974 53.8867 5.40765C55.7636 6.08021 57.5295 8.07201 57.8434 11.3225Z" stroke="#D9D9D9" stroke-width="3"/>
<path d="M45.3687 27.7287C48.6834 26.6796 51.7116 24.2981 54.087 20.8724C55.4187 18.9795 56.3334 16.5831 56.7204 13.9727C57.0219 11.3691 56.1912 8.93901 54.3393 8.19263C53.3534 7.8243 52.3046 8.0143 51.4167 8.72204C50.7561 9.32569 50.1379 10.0174 49.5709 10.7876C50.6169 9.32956 51.4967 7.91491 53.0718 7.72398C53.9836 7.59957 54.8946 7.9702 55.6194 8.76034C56.3442 9.55048 56.8281 10.7007 56.9726 11.9766C57.2618 14.7104 56.2528 17.5311 55.1268 19.6487C53.8951 21.8721 52.3568 23.7202 50.6046 25.0816C48.98 26.3816 47.2088 27.277 45.3687 27.7287Z" fill="white"/>
<path d="M12.9697 41.9366L18.2918 41.8755L29.9819 41.8232L41.672 41.8755L46.9941 41.9366L41.672 41.9976H29.9819H18.2918L12.9697 41.9366Z" fill="white"/>
<path d="M1.24268 34.9496L30.0003 34.8368L58.758 34.9496L30.0003 35.0537L1.24268 34.9496Z" fill="white"/>
<path d="M18.7103 29.317C16.3661 25.9323 15.4063 20.942 14.6495 16.4637C13.9758 12.3697 13.5639 8.19873 13.4189 4.0009L15.2648 3.87939C15.4801 12.5061 16.0154 21.3933 18.7103 29.317Z" fill="white"/>
</svg>
