<svg width="148" height="111" viewBox="0 0 148 111" fill="none" xmlns="http://www.w3.org/2000/svg">
<path d="M146.529 81.9926H1.47086C1.18308 82.0051 0.903734 82.1328 0.665485 82.3608C0.427236 82.5889 0.239878 82.9078 0.125309 83.2804C0.010739 83.653 -0.0263044 84.0639 0.018459 84.4651C0.0632224 84.8663 0.187978 85.2412 0.378145 85.5462C4.53654 91.733 14.4772 103.807 29.0165 104.128C29.404 104.142 29.7733 104.364 30.0485 104.749L34.0399 110.379C34.3226 110.775 34.7041 110.998 35.1023 111H112.898C113.296 110.998 113.677 110.775 113.96 110.379L117.952 104.749C118.227 104.364 118.596 104.142 118.984 104.128C133.523 103.807 143.463 91.733 147.622 85.5462C147.812 85.2412 147.937 84.8663 147.982 84.4651C148.026 84.0639 147.989 83.653 147.875 83.2804C147.76 82.9078 147.573 82.5889 147.335 82.3608C147.096 82.1328 146.817 82.0051 146.529 81.9926Z" fill="#D9D9D9"/>
<path d="M146.363 27.5732C145.468 18.3036 140.292 12.0097 134.085 9.82615C129.549 8.41911 124.868 8.1942 120.275 9.16252C120.275 6.14402 120.381 3.72495 120.381 2.14078C120.381 1.57301 120.221 1.02849 119.936 0.627017C119.652 0.225544 119.266 0 118.863 0H29.1085C28.706 0 28.3199 0.225544 28.0353 0.627017C27.7507 1.02849 27.5908 1.57301 27.5908 2.14078C27.5908 14.7714 28.8353 80.0864 52.0252 81.9917H96.0223C100.279 81.6095 104.27 78.9439 107.177 74.5418C112.839 74.1074 118.412 72.3644 123.674 69.3825C129.979 65.7392 135.584 60.0473 140.035 52.7701C144.102 45.941 147.259 36.7357 146.363 27.5732ZM136.392 43.0938C133.161 50.4321 128.583 56.4014 123.143 60.3699C119.447 63.1609 115.486 65.1868 111.381 66.3855C115.372 56.5165 117.619 43.4792 118.848 31.5336C121.333 30.4 123.559 28.3532 125.298 25.6037C126.459 23.682 128.031 22.3443 129.777 21.7922C131.523 21.24 133.35 21.5033 134.981 22.5424C140.869 26.6955 139.033 36.6501 136.392 43.0938Z" fill="#D9D9D9"/>
<path d="M111.909 68.3974C120.086 65.8097 127.555 59.9354 133.415 51.4852C136.699 46.816 138.955 40.9049 139.91 34.4661C140.654 28.0437 138.605 22.0495 134.037 20.2085C131.605 19.2999 129.018 19.7686 126.828 21.5144C125.198 23.0034 123.673 24.7096 122.275 26.6094C124.855 23.0129 127.025 19.5234 130.91 19.0525C133.159 18.7456 135.407 19.6598 137.194 21.6088C138.982 23.5578 140.176 26.395 140.532 29.5423C141.246 36.2857 138.757 43.2433 135.979 48.4667C132.941 53.9511 129.147 58.5099 124.825 61.868C120.817 65.0745 116.448 67.2833 111.909 68.3974Z" fill="#D9D9D9"/>
<path d="M31.9922 103.444L45.12 103.293L73.9556 103.164L102.791 103.293L115.919 103.444L102.791 103.594H73.9556H45.12L31.9922 103.444Z" fill="#D9D9D9"/>
<path d="M3.06543 86.2089L74.001 85.9307L144.937 86.2089L74.001 86.4659L3.06543 86.2089Z" fill="#D9D9D9"/>
<path d="M46.152 72.3153C40.3697 63.9663 38.0021 51.6568 36.1354 40.6104C34.4736 30.512 33.4577 20.2235 33.1001 9.86886L37.6531 9.56915C38.1843 30.8485 39.5046 52.77 46.152 72.3153Z" fill="#D9D9D9"/>
</svg>
